# xmcd
#
# Track frame offsets: 
#        150
#        28779
#        54943
#        84644
#        114068
#        131090
#        167923
#        188081
#        214544
#        228297
#        249017
#
# Disc length: 3475 seconds
#
# Revision: 0
# Processed by: cddbd v1.5.2PL0 Copyright (c) Steve Scherf et al.
# Submitted via: ExactAudioCopy v1.3
#
DISCID=820d910b
DTITLE=Bukka White - Aberdeen, Mississippi Blues: Live In Germany
DYEAR=2019
DGENRE=Blues
TTITLE0=Black Rat (Live)
TTITLE1=Way Out in the West (Live)
TTITLE2=Mama Don't Allow (Live)
TTITLE3=Stuttgart, Arkansas (Live)
TTITLE4=Don't Fuzz Blues (Live)
TTITLE5=Big Boat Up the River (Live)
TTITLE6=New Orleans Streamline (Live)
TTITLE7=Every Day I Have the Blues (Live)
TTITLE8=Aberdeen Blues (Live)
TTITLE9=Midnight Blues (Live)
TTITLE10=Poor Boy Long Way From Home (Live)
EXTD=
EXTT0=
EXTT1=
EXTT2=
EXTT3=
EXTT4=
EXTT5=
EXTT6=
EXTT7=
EXTT8=
EXTT9=
EXTT10=
PLAYORDER=
